HIERARCHY
ROOT Hips
{
    OFFSET 0.000000 0.000000 0.000000
    CHANNELS 6 Xposition Yposition Zposition Zrotation Xrotation Yrotation
    JOINT Chest
    {
        OFFSET -0.000000 0.071157 0.000000
        CHANNELS 3 Zrotation Xrotation Yrotation
        JOINT Chest2
        {
            OFFSET -0.000000 0.200496 0.000000
            CHANNELS 3 Zrotation Xrotation Yrotation
            JOINT Neck
            {
                OFFSET -0.000000 0.217851 0.000000
                CHANNELS 3 Zrotation Xrotation Yrotation
                JOINT Head
                {
                    OFFSET -0.000000 0.094152 0.017355
                    CHANNELS 3 Zrotation Xrotation Yrotation
                    End Site
                    {
                        OFFSET -0.000000 0.173553 0.000000
                    }
                }
            }
            JOINT LeftCollar
            {
                OFFSET 0.034349 0.184703 -0.001098
                CHANNELS 3 Zrotation Xrotation Yrotation
                JOINT LeftShoulder
                {
                    OFFSET 0.100089 0.000000 0.000000
                    CHANNELS 3 Zrotation Xrotation Yrotation
                    JOINT LeftElbow
                    {
                        OFFSET 0.265196 0.000000 0.000000
                        CHANNELS 3 Zrotation Xrotation Yrotation
                        JOINT LeftWrist
                        {
                            OFFSET 0.220131 0.000000 0.000000
                            CHANNELS 3 Zrotation Xrotation Yrotation
                            End Site
                            {
                                OFFSET 0.000000 -0.130165 0.000000
                            }
                        }
                    }
                }
            }
            JOINT RightCollar
            {
                OFFSET -0.035053 0.184703 -0.001098
                CHANNELS 3 Zrotation Xrotation Yrotation
                JOINT RightShoulder
                {
                    OFFSET -0.100089 0.000000 0.000000
                    CHANNELS 3 Zrotation Xrotation Yrotation
                    JOINT RightElbow
                    {
                        OFFSET -0.265196 0.000000 0.000000
                        CHANNELS 3 Zrotation Xrotation Yrotation
                        JOINT RightWrist
                        {
                            OFFSET -0.220131 0.000000 0.000000
                            CHANNELS 3 Zrotation Xrotation Yrotation
                            End Site
                            {
                                OFFSET -0.000000 -0.130165 0.000000
                            }
                        }
                    }
                }
            }
        }
    }
    JOINT LeftHip
    {
        OFFSET 0.086776 0.000000 0.000000
        CHANNELS 3 Zrotation Xrotation Yrotation
        JOINT LeftKnee
        {
            OFFSET -0.000000 -0.397777 0.000000
            CHANNELS 3 Zrotation Xrotation Yrotation
            JOINT LeftAnkle
            {
                OFFSET -0.000000 -0.331973 0.000000
                CHANNELS 3 Zrotation Xrotation Yrotation
                JOINT LeftToe
                {
                    OFFSET -0.000000 -0.056405 0.130165
                    CHANNELS 3 Zrotation Xrotation Yrotation
                    End Site
                    {
                        OFFSET -0.000000 0.000000 0.034711
                    }
                }
            }
        }
    }
    JOINT RightHip
    {
        OFFSET -0.086776 0.000000 0.000000
        CHANNELS 3 Zrotation Xrotation Yrotation
        JOINT RightKnee
        {
            OFFSET -0.000000 -0.397777 0.000000
            CHANNELS 3 Zrotation Xrotation Yrotation
            JOINT RightAnkle
            {
                OFFSET -0.000000 -0.331973 0.000000
                CHANNELS 3 Zrotation Xrotation Yrotation
                JOINT RightToe
                {
                    OFFSET -0.000000 -0.056405 0.130165
                    CHANNELS 3 Zrotation Xrotation Yrotation
                    End Site
                    {
                        OFFSET -0.000000 0.000000 0.034711
                    }
                }
            }
        }
    }
}
MOTION
Frames:    14
Frame Time:    0.016667
-0.397863    0.795574    0.155452    0.909837    2.094822    146.214859    -3.899972    14.915897    0.169692    4.412872    15.868120    -0.727526    -3.365417    20.027334    -8.931442    4.317892    10.333294    -11.191421    4.236887    11.895793    -1.086195    -166.012054    65.795151    105.920776    -37.632912    -19.619673    -124.030014    106.315834    22.033628    69.275658    -5.000251    5.127317    8.184279    42.684566    25.356348    18.778479    -45.917645    -14.182732    42.996632    -132.591400    -1.754495    4.281493    8.431255    -14.939072    4.723087    -12.414406    38.099571    16.699989    -4.513425    -11.232779    5.075120    0.000000    0.000000    0.000000    6.240001    -13.229526    -0.578657    -4.954686    29.872749    0.678587    -1.163133    -10.814396    -3.350842    0.000000    0.000000    0.000000    
-0.396330    0.794919    0.155667    0.937463    2.218102    146.205841    -3.885261    15.096127    0.143030    4.402928    16.056736    -0.743981    -3.620089    19.759756    -8.602662    4.182761    10.308872    -10.892625    4.286950    11.782728    -0.916160    -166.276123    65.839317    106.110733    -37.741745    -19.631767    -123.943901    106.366348    22.241449    69.287071    -5.084685    4.902888    8.268622    43.000546    25.335569    18.482281    -46.249561    -14.694475    43.801918    -132.488556    -1.563121    4.398195    8.698174    -15.518867    4.303207    -13.171683    39.320473    17.655594    -4.927966    -10.723785    4.785677    0.000000    0.000000    0.000000    6.366465    -13.232838    -0.690444    -5.169734    30.197624    0.641386    -1.158251    -11.018281    -3.145773    0.000000    0.000000    0.000000    
-0.394564    0.794172    0.155867    0.957984    2.356774    146.168228    -3.902870    15.484022    0.306456    4.470446    15.873362    -0.697384    -3.739158    19.858027    -8.357832    3.857133    9.991427    -10.599533    4.150582    11.929339    -1.052715    -166.526825    65.890350    106.423775    -37.667168    -19.913471    -123.977364    106.259155    22.312468    69.334366    -5.144737    4.974119    8.188301    43.244015    25.372223    18.222506    -46.752262    -15.313863    44.748589    -132.622742    -1.272666    4.606664    9.033123    -16.353283    3.862314    -14.198889    40.937130    18.892092    -5.262787    -10.044106    4.657894    0.000000    0.000000    0.000000    6.402877    -13.241136    -0.918085    -5.261731    30.568342    0.581981    -1.230600    -11.287401    -2.782760    0.000000    0.000000    0.000000    
-0.393123    0.793563    0.155990    1.034270    2.489574    146.093933    -3.883844    15.762326    0.432229    4.494374    15.940765    -0.663879    -3.978730    19.710884    -8.123641    3.921228    9.885056    -10.436623    4.250717    11.813442    -1.085853    -166.485229    65.982109    106.381485    -37.740036    -19.653389    -123.773422    106.536194    22.037998    69.153992    -5.135368    4.918722    8.201844    43.376041    25.532326    17.918455    -47.651798    -15.828262    45.236744    -132.107620    -0.958309    4.916531    9.423999    -17.004160    3.644030    -15.244085    42.302826    19.104034    -5.325336    -9.525018    5.550145    0.000000    0.000000    0.000000    6.448287    -13.147380    -1.171589    -5.358026    30.795351    0.841724    -1.312147    -11.484554    -2.549542    0.000000    0.000000    0.000000    
-0.391729    0.793080    0.156042    1.093463    2.628785    146.033325    -3.900399    16.064129    0.516702    4.582448    15.929602    -0.653782    -4.241282    19.705332    -7.812113    3.836472    9.586202    -10.167904    4.160123    11.802292    -1.067904    -166.545959    66.038506    106.455070    -37.769150    -19.765549    -123.634346    106.256470    21.902485    69.187508    -5.239804    4.834321    8.409483    43.619324    25.809673    17.480099    -48.619072    -16.562588    45.802864    -131.551575    -0.310720    5.215400    9.804870    -17.666634    3.459599    -16.311708    43.543362    19.846664    -5.547970    -8.732907    5.838357    0.000000    0.000000    0.000000    6.457670    -13.057837    -1.401499    -5.442364    31.073292    1.001007    -1.226559    -11.762968    -2.308834    0.000000    0.000000    0.000000    
-0.390412    0.792690    0.155741    1.159490    2.753091    145.969666    -3.813784    16.347502    0.680420    4.513494    15.897820    -0.586216    -4.249817    19.558382    -7.706691    3.609264    9.594442    -10.009068    4.244590    11.766508    -1.130121    -166.667709    66.171364    106.632332    -37.832710    -19.667530    -123.449173    106.331978    21.764416    69.084152    -5.238583    4.822876    8.389887    43.938885    26.183743    16.954721    -49.526131    -17.366838    46.644611    -130.254944    0.044348    5.466638    10.032825    -18.294701    3.660826    -16.699369    44.824574    20.224865    -5.630950    -7.949646    6.115287    0.000000    0.000000    0.000000    6.495453    -12.946899    -1.730644    -5.556511    31.228849    1.086656    -1.364208    -11.890499    -2.095049    0.000000    0.000000    0.000000    
-0.389016    0.792294    0.155570    1.201599    2.824436    145.859039    -3.751261    16.552338    0.779476    4.479652    15.895115    -0.547881    -4.488884    19.467062    -7.449463    3.437740    9.491220    -9.774128    4.222099    11.846639    -1.131692    -167.050598    66.153969    106.983009    -37.631222    -20.087320    -123.524353    106.291580    21.688488    69.083694    -5.372695    4.626115    8.564889    44.483276    26.554344    16.287214    -50.364182    -18.416166    47.555931    -129.354813    0.343728    5.461573    10.365425    -18.942333    3.973480    -17.158411    46.148888    20.476742    -6.142036    -7.534432    6.171527    0.000000    0.000000    0.000000    6.636533    -12.934583    -1.640802    -5.685781    31.535233    1.479047    -1.515800    -12.057774    -2.398635    0.000000    0.000000    0.000000    
-0.387790    0.791971    0.155241    1.161213    2.863362    145.705902    -3.711969    16.665056    0.911286    4.346681    15.895190    -0.485085    -4.627501    19.341700    -7.232891    3.300183    9.417204    -9.557063    4.275307    11.719372    -1.126983    -166.596161    66.124939    106.630219    -37.677208    -19.876461    -123.451416    106.411804    21.794544    68.968109    -5.394701    4.581338    8.688096    44.954559    26.814796    15.658895    -51.188431    -19.530907    48.681278    -127.845398    0.970165    5.635430    10.714126    -19.530815    3.943518    -18.359793    47.008095    21.530066    -5.673588    -7.014338    6.639437    0.000000    0.000000    0.000000    6.748028    -12.978538    -1.387570    -5.763306    31.815363    1.774442    -1.678584    -12.193699    -2.819782    0.000000    0.000000    0.000000    
-0.386255    0.791444    0.154417    1.137792    2.999787    145.519180    -3.689324    16.928179    1.076176    4.163145    15.736965    -0.400972    -4.762040    19.318342    -6.975800    3.159425    9.353916    -9.300679    4.356153    11.708132    -0.999382    -166.557922    66.141266    106.608849    -37.621059    -19.877146    -123.390457    106.354240    21.944515    68.849976    -5.356544    4.638884    8.618579    45.464611    27.192535    15.130200    -52.372459    -20.730156    50.052830    -126.258087    1.140863    5.954116    10.952580    -20.047413    4.232463    -19.003323    47.954334    22.130732    -6.057758    -7.299928    6.738718    0.000000    0.000000    0.000000    6.816623    -12.851158    -1.175241    -5.787461    32.003357    1.664377    -1.830818    -12.476569    -2.917729    0.000000    0.000000    0.000000    
-0.385095    0.791276    0.153594    1.055564    3.069330    145.369446    -3.720889    16.948250    1.078359    4.045717    15.793864    -0.387900    -5.073123    19.259623    -6.628068    3.192965    9.304335    -9.039119    4.395956    11.675120    -0.885492    -166.677170    66.053169    106.643967    -37.500751    -20.110304    -123.464020    106.412231    21.979416    68.838776    -5.559369    4.313789    8.793457    46.331825    27.683784    14.462184    -53.364548    -21.661419    51.136574    -124.476891    1.752010    6.440626    10.965989    -20.442392    4.575849    -18.889446    48.425888    22.205120    -5.911418    -7.599015    6.263345    0.000000    0.000000    0.000000    6.875513    -12.834633    -1.120137    -6.074515    32.258732    1.950468    -1.856436    -12.709422    -3.069479    0.000000    0.000000    0.000000    
-0.383970    0.791412    0.152373    0.931157    3.212246    145.304291    -3.907866    17.091396    1.196491    4.091248    15.613724    -0.358995    -5.126925    19.352758    -6.476779    2.926297    9.325354    -8.848747    4.344613    11.738173    -0.950579    -166.324890    66.079826    106.373672    -37.500877    -19.925806    -123.407936    106.431999    22.127436    68.708748    -5.506698    4.624505    8.515513    46.434574    28.285618    14.387117    -54.203079    -22.843025    52.229836    -122.922485    2.724757    6.697409    10.954994    -20.697155    4.421153    -19.432446    48.352375    22.449760    -5.556490    -7.947854    6.672206    0.000000    0.000000    0.000000    6.786465    -12.716896    -1.088336    -6.185928    32.369850    2.259630    -2.047796    -12.857009    -3.408279    0.000000    0.000000    0.000000    
-0.382951    0.791457    0.151049    0.826066    3.300461    145.290329    -3.895689    17.145279    1.094115    3.959598    15.513444    -0.371814    -5.426247    19.384539    -6.157384    2.889286    9.400721    -8.605563    4.215689    11.789604    -0.882004    -166.302872    65.924889    106.503983    -37.387444    -20.081682    -123.495605    106.455467    22.084099    68.709198    -5.531315    4.441455    8.507012    47.098068    28.776720    13.804335    -54.076374    -24.020977    54.109425    -121.601143    2.737316    6.583187    10.845282    -20.981457    4.545577    -19.135094    48.299480    22.563461    -6.092791    -8.441362    5.813560    0.000000    0.000000    0.000000    6.716053    -12.641945    -1.148430    -6.290574    32.425518    2.552393    -2.088918    -12.956380    -3.728022    0.000000    0.000000    0.000000    
-0.381850    0.791633    0.149827    0.722977    3.372418    145.199921    -3.941990    17.171732    1.053706    3.842924    15.402472    -0.367749    -5.591314    19.388544    -5.893948    2.587453    9.598005    -8.325500    4.276547    11.785817    -0.914987    -165.987381    65.881363    106.192024    -37.446896    -19.874063    -123.388481    106.429596    21.933104    68.648476    -5.508706    4.493149    8.556132    47.593304    29.074121    13.367743    -53.472321    -25.264965    56.277954    -120.637535    2.786669    6.283597    10.829615    -21.292429    4.613717    -19.221388    47.939686    22.052174    -5.223915    -8.363964    6.948046    0.000000    0.000000    0.000000    6.682583    -12.515652    -0.956809    -6.376733    32.506908    2.425506    -2.009440    -13.163780    -3.681221    0.000000    0.000000    0.000000    
-0.380768    0.791892    0.148281    0.621146    3.418640    145.263397    -3.911161    17.175165    0.919214    3.783094    15.237310    -0.398020    -5.872403    19.579554    -5.614545    2.496802    9.579652    -8.112874    4.204708    11.968300    -0.856978    -165.975494    66.051071    106.319839    -37.522152    -19.722464    -123.370338    106.521095    21.841740    68.660400    -5.380987    4.539735    8.326045    47.772678    29.827995    13.188899    -52.775272    -26.428030    58.293705    -120.191689    2.823477    5.890814    10.715362    -21.561131    4.484370    -19.023539    47.318325    21.995823    -5.287848    -8.457821    7.022770    0.000000    0.000000    0.000000    6.598605    -12.378040    -1.009515    -6.408898    32.454060    2.919589    -2.137278    -13.241932    -4.255022    0.000000    0.000000    0.000000    
